<svg width="32" height="35" viewBox="0 0 32 35" fill="none" xmlns="http://www.w3.org/2000/svg">
<rect y="1" width="32" height="32" rx="8" fill="#FFAA8F"/>
<path d="M15.54 26.16C13.7667 26.16 12.3467 25.8267 11.28 25.16C10.2133 24.48 9.68 23.4467 9.68 22.06C9.68 21.3267 9.80667 20.7667 10.06 20.38C10.3133 19.9933 10.6867 19.8 11.18 19.8C11.54 19.8 11.8333 19.8933 12.06 20.08C12.2867 20.2667 12.4 20.5067 12.4 20.8C12.4 21.0667 12.38 21.3 12.34 21.5C12.34 21.5533 12.3267 21.6467 12.3 21.78C12.2867 21.9133 12.28 22.0533 12.28 22.2C12.28 22.8 12.58 23.2467 13.18 23.54C13.7933 23.8333 14.6467 23.98 15.74 23.98C16.8733 23.98 17.76 23.78 18.4 23.38C19.04 22.9667 19.36 22.3933 19.36 21.66C19.36 21.2067 19.2133 20.82 18.92 20.5C18.6267 20.1667 18.26 19.8933 17.82 19.68C17.38 19.4533 16.76 19.18 15.96 18.86C14.9333 18.46 14.0933 18.08 13.44 17.72C12.8 17.36 12.2467 16.8733 11.78 16.26C11.3267 15.6333 11.1 14.86 11.1 13.94C11.1 12.98 11.3533 12.1267 11.86 11.38C12.38 10.6333 13.12 10.0533 14.08 9.64C15.0533 9.22667 16.1933 9.02 17.5 9.02C18.4733 9.02 19.3667 9.16667 20.18 9.46C20.9933 9.74 21.64 10.1733 22.12 10.76C22.6133 11.3467 22.86 12.0667 22.86 12.92C22.86 13.76 22.7333 14.3933 22.48 14.82C22.2267 15.2467 21.8533 15.46 21.36 15.46C21.0133 15.46 20.72 15.3533 20.48 15.14C20.2533 14.9267 20.14 14.6733 20.14 14.38C20.14 14.1267 20.16 13.8933 20.2 13.68C20.24 13.28 20.26 13.0267 20.26 12.92C20.26 12.36 19.9867 11.9333 19.44 11.64C18.8933 11.3467 18.2133 11.2 17.4 11.2C16.2533 11.2 15.3733 11.4133 14.76 11.84C14.16 12.2533 13.86 12.84 13.86 13.6C13.86 14.1067 14.0133 14.54 14.32 14.9C14.64 15.26 15.0333 15.56 15.5 15.8C15.9667 16.04 16.62 16.3267 17.46 16.66C18.4733 17.0733 19.2867 17.4467 19.9 17.78C20.5133 18.1133 21.0333 18.5667 21.46 19.14C21.9 19.7133 22.12 20.42 22.12 21.26C22.12 22.8333 21.52 24.0467 20.32 24.9C19.1333 25.74 17.54 26.16 15.54 26.16Z" fill="black"/>
</svg>
