<svg width="71" height="36" viewBox="0 0 71 36" fill="none" xmlns="http://www.w3.org/2000/svg">
<path d="M10.724 6.496H8.316V5.404H7.42V11.704H8.4V14H2.52V11.704H3.5V5.404H2.604V6.496H0.196V3.108H10.724V6.496ZM22.4038 5.404H21.7038V11.704H22.4038V14H17.1118V11.704H17.7838V9.394H15.8238V11.704H16.4958V14H11.2038V11.704H11.9038V5.404H11.2038V3.108H16.4958V5.404H15.8238V7.532H17.7838V5.404H17.1118V3.108H22.4038V5.404ZM22.9616 14V11.704H23.6616V5.404H22.9616V3.108H32.4116V7.336H29.2756V5.404H27.5816V7.616H28.8136V9.212H27.5816V11.704H29.2756V9.492H32.4116V14H22.9616Z" fill="#FBFBFB"/>
<path d="M12.25 20.108H16.73V22.404H16.17L14.084 31H9.898L8.624 24.952H8.484L7.14 31H2.954L0.728 22.404H0.168V20.108H5.348V22.404H4.816L5.362 25.974H5.502L6.832 20.108H10.864L12.096 25.974H12.236L12.782 22.404H12.25V20.108ZM17.1784 31V28.704H17.8784V22.404H17.1784V20.108H22.4984V22.404H21.7984V28.704H22.4984V31H17.1784ZM31.1213 20.108H35.7133V22.404H35.0133V31H31.0793L26.9773 24.686V28.704H27.6493V31H23.0573V28.704H23.7573V22.404H23.0573V20.108H28.1113L31.7933 25.722V22.404H31.1213V20.108ZM44.3147 20.108H48.9067V22.404H48.2067V31H44.2727L40.1707 24.686V28.704H40.8427V31H36.2507V28.704H36.9507V22.404H36.2507V20.108H41.3047L44.9867 25.722V22.404H44.3147V20.108ZM49.4441 31V28.704H50.1441V22.404H49.4441V20.108H58.8941V24.336H55.7581V22.404H54.0641V24.616H55.2961V26.212H54.0641V28.704H55.7581V26.492H58.8941V31H49.4441ZM59.4245 28.704H60.1245V22.404H59.4245V20.108H65.8505C67.0545 20.108 67.9739 20.3553 68.6085 20.85C69.2432 21.3447 69.5605 22.1473 69.5605 23.258C69.5605 23.8833 69.4345 24.4247 69.1825 24.882C68.9305 25.3393 68.5712 25.6567 68.1045 25.834L68.1185 25.974C69.0145 26.114 69.4625 26.6647 69.4625 27.626V28.704H70.1205V31H65.6825V27.71C65.6825 27.346 65.6265 27.0707 65.5145 26.884C65.4119 26.6973 65.2439 26.5713 65.0105 26.506C64.7865 26.4407 64.4645 26.408 64.0445 26.408V28.704H64.9685V31H59.4245V28.704ZM64.8005 24.7C65.0712 24.7 65.2719 24.63 65.4025 24.49C65.5425 24.3407 65.6125 24.112 65.6125 23.804V23.3C65.6125 22.992 65.5425 22.768 65.4025 22.628C65.2719 22.4787 65.0712 22.404 64.8005 22.404H64.0445V24.7H64.8005Z" fill="#FBFBFB"/>
<rect x="41" y="7" width="8" height="4" fill="#E63903"/>
</svg>
