<svg width="31" height="27" viewBox="0 0 31 27" fill="none" xmlns="http://www.w3.org/2000/svg">
<g clip-path="url(#clip0_32_357)">
<path d="M2.02062 0.0286713L13.7039 8.45105L11.5429 3.4818L2.02062 0.0286713Z" fill="#E2761B" stroke="#E2761B" stroke-linecap="round" stroke-linejoin="round"/>
<path d="M28.9912 0.0286713L17.4019 8.53075L19.4571 3.4818L28.9912 0.0286713Z" fill="#E4761B" stroke="#E4761B" stroke-linecap="round" stroke-linejoin="round"/>
<path d="M6.22434 19.5519L9.33582 24.1794L2.67808 25.957L0.76405 19.6545L6.22434 19.5519Z" fill="#E4761B" stroke="#E4761B" stroke-linecap="round" stroke-linejoin="round"/>
<path d="M30.2241 19.6545L28.3219 25.957L21.6642 24.1794L24.7756 19.5519L30.2241 19.6545Z" fill="#E4761B" stroke="#E4761B" stroke-linecap="round" stroke-linejoin="round"/>
<path d="M22.0399 11.7333L23.8954 14.4576L17.285 14.7426L17.5195 7.84724L22.0399 11.7333Z" fill="#E4761B" stroke="#E4761B" stroke-linecap="round" stroke-linejoin="round"/>
<path d="M8.97196 11.7333L13.5509 7.76753L13.7039 14.7426L7.1046 14.4576L8.97196 11.7333Z" fill="#E4761B" stroke="#E4761B" stroke-linecap="round" stroke-linejoin="round"/>
<path d="M21.6642 24.1793L17.6955 22.2985L21.1242 19.6998L21.6642 24.1793Z" fill="#E4761B" stroke="#E4761B" stroke-linecap="round" stroke-linejoin="round"/>
<path d="M13.3163 22.2985L9.33582 24.1793L9.88758 19.6998L13.3163 22.2985Z" fill="#E4761B" stroke="#E4761B" stroke-linecap="round" stroke-linejoin="round"/>
<path d="M9.33582 24.1794L13.3163 22.2985L12.9991 24.8176L13.0345 25.8772L9.33582 24.1794Z" fill="#D7C1B3" stroke="#D7C1B3" stroke-linecap="round" stroke-linejoin="round"/>
<path d="M21.6642 24.1794L17.9655 25.8772L17.9891 24.8176L17.6955 22.2985L21.6642 24.1794Z" fill="#D7C1B3" stroke="#D7C1B3" stroke-linecap="round" stroke-linejoin="round"/>
<path d="M17.907 18.0363L21.2181 17.0902L18.8817 16.0529L17.907 18.0363Z" fill="#233447" stroke="#233447" stroke-linecap="round" stroke-linejoin="round"/>
<path d="M13.1048 18.0363L12.1301 16.0529L9.78183 17.0902L13.1048 18.0363Z" fill="#233447" stroke="#233447" stroke-linecap="round" stroke-linejoin="round"/>
<path d="M21.6642 24.1794L21.1006 19.5519L24.7756 19.6545L21.6642 24.1794Z" fill="#CD6116" stroke="#CD6116" stroke-linecap="round" stroke-linejoin="round"/>
<path d="M9.89941 19.5519L9.33584 24.1794L6.22437 19.6545L9.89941 19.5519Z" fill="#CD6116" stroke="#CD6116" stroke-linecap="round" stroke-linejoin="round"/>
<path d="M7.1046 14.4576L13.7039 14.7426L13.093 18.0363L12.1183 16.0529L9.77006 17.0902L7.1046 14.4576Z" fill="#CD6116" stroke="#CD6116" stroke-linecap="round" stroke-linejoin="round"/>
<path d="M21.2182 17.0902L18.8699 16.0529L17.907 18.0363L17.285 14.7426L23.8954 14.4576L21.2182 17.0902Z" fill="#CD6116" stroke="#CD6116" stroke-linecap="round" stroke-linejoin="round"/>
<path d="M23.8954 14.4576L21.1242 19.6998L21.2182 17.0902L23.8954 14.4576Z" fill="#E4751F" stroke="#E4751F" stroke-linecap="round" stroke-linejoin="round"/>
<path d="M9.77001 17.0902L9.88757 19.6998L7.10456 14.4576L9.77001 17.0902Z" fill="#E4751F" stroke="#E4751F" stroke-linecap="round" stroke-linejoin="round"/>
<path d="M17.2849 14.7426L17.907 18.0363L17.1319 21.9224L16.9559 16.8052L17.2849 14.7426Z" fill="#E4751F" stroke="#E4751F" stroke-linecap="round" stroke-linejoin="round"/>
<path d="M13.7038 14.7426L14.0204 16.7937L13.8798 21.9224L13.093 18.0363L13.7038 14.7426Z" fill="#E4751F" stroke="#E4751F" stroke-linecap="round" stroke-linejoin="round"/>
<path d="M13.093 18.0363L13.8799 21.9224L13.3163 22.2985L9.8876 19.6998L9.77004 17.0902L13.093 18.0363Z" fill="#F6851B" stroke="#F6851B" stroke-linecap="round" stroke-linejoin="round"/>
<path d="M21.2181 17.0902L21.1242 19.6998L17.6955 22.2985L17.1319 21.9224L17.907 18.0363L21.2181 17.0902Z" fill="#F6851B" stroke="#F6851B" stroke-linecap="round" stroke-linejoin="round"/>
<path d="M13.0345 25.8772L12.9991 24.8176L13.2927 24.5664H17.7192L17.9891 24.8176L17.9655 25.8772L21.6642 24.1794L20.3728 25.2046L17.7546 26.9713H13.2572L10.6272 25.2046L9.33584 24.1794L13.0345 25.8772Z" fill="#C0AD9E" stroke="#C0AD9E" stroke-linecap="round" stroke-linejoin="round"/>
<path d="M13.3163 22.2985L13.8799 21.9224H17.132L17.6955 22.2985L17.9891 24.8176L17.7192 24.5664H13.2927L12.9991 24.8176L13.3163 22.2985Z" fill="#161616" stroke="#161616" stroke-linecap="round" stroke-linejoin="round"/>
<path d="M1.5273 8.99809L0.529526 4.34824L2.02058 0.0286713L13.3163 8.16606L8.97192 11.7333L2.83108 13.4771L1.46882 11.9386L2.05602 11.5286L1.11673 10.6966L1.84453 10.1495L0.905242 9.45396L1.5273 8.99809Z" fill="#763D16" stroke="#763D16" stroke-linecap="round" stroke-linejoin="round"/>
<path d="M30.4705 4.34824L29.4727 8.99809L30.1066 9.45396L29.1673 10.1495L29.8833 10.6966L28.944 11.5286L29.5312 11.9386L28.1807 13.4771L22.0399 11.7333L17.6955 8.16606L28.9912 0.0286713L30.4705 4.34824Z" fill="#763D16" stroke="#763D16" stroke-linecap="round" stroke-linejoin="round"/>
<path d="M2.83108 13.4771L8.97191 11.7333L7.10456 14.4576L9.88757 19.6998L6.22434 19.6545H0.764049L2.83108 13.4771Z" fill="#F6851B" stroke="#F6851B" stroke-linecap="round" stroke-linejoin="round"/>
<path d="M22.0399 11.7333L28.1807 13.4771L30.2241 19.6545H24.7756L21.1242 19.6998L23.8954 14.4576L22.0399 11.7333Z" fill="#F6851B" stroke="#F6851B" stroke-linecap="round" stroke-linejoin="round"/>
<path d="M13.7038 14.7426L13.3163 8.16606L11.5311 3.4818H19.4572L17.6955 8.16606L17.285 14.7426L17.1438 16.8167L17.132 21.9224H13.8799L13.8563 16.8167L13.7038 14.7426Z" fill="#F6851B" stroke="#F6851B" stroke-linecap="round" stroke-linejoin="round"/>
</g>
<defs>
<clipPath id="clip0_32_357">
<rect width="30" height="27" fill="white" transform="matrix(-1 0 0 1 30.5 0)"/>
</clipPath>
</defs>
</svg>
